<?xml version="1.0" encoding="UTF-8" standalone="no"?>
<!-- Created with Inkscape (http://www.inkscape.org/) -->

<svg
   width="42.510902mm"
   height="110.09529mm"
   viewBox="0 0 42.510902 110.09529"
   version="1.1"
   id="svg1"
   xml:space="preserve"
   inkscape:version="1.4.2 (ebf0e940d0, 2025-05-08)"
   sodipodi:docname="linja.svg"
   inkscape:export-filename="linja.png"
   inkscape:export-xdpi="1200"
   inkscape:export-ydpi="1200"
   xmlns:inkscape="http://www.inkscape.org/namespaces/inkscape"
   xmlns:sodipodi="http://sodipodi.sourceforge.net/DTD/sodipodi-0.dtd"
   xmlns="http://www.w3.org/2000/svg"
   xmlns:svg="http://www.w3.org/2000/svg"><sodipodi:namedview
     id="namedview1"
     pagecolor="#ffffff"
     bordercolor="#666666"
     borderopacity="1.0"
     inkscape:showpageshadow="2"
     inkscape:pageopacity="0.0"
     inkscape:pagecheckerboard="0"
     inkscape:deskcolor="#d1d1d1"
     inkscape:document-units="mm"
     inkscape:zoom="1.3601992"
     inkscape:cx="66.901967"
     inkscape:cy="209.52814"
     inkscape:window-width="1920"
     inkscape:window-height="1031"
     inkscape:window-x="0"
     inkscape:window-y="0"
     inkscape:window-maximized="1"
     inkscape:current-layer="layer1" /><defs
     id="defs1" /><g
     inkscape:label="Layer 1"
     inkscape:groupmode="layer"
     id="layer1"
     transform="translate(-104.14669,-96.57138)"><g
       id="g22"><path
         style="fill:#333333;fill-opacity:1;stroke:#000000;stroke-width:0.5;stroke-linecap:round;stroke-linejoin:round;stroke-dasharray:none;stroke-opacity:1"
         d="m 123.27583,100.56585 c 0.29178,0.0486 9.82317,2.23696 9.82317,2.23696 l 1.89655,5.20335 c 0,0 -1.21574,0.82671 -1.41026,0.77808 -0.19452,-0.0486 -14.63749,-2.09107 -14.63749,-2.09107 l 1.45889,-6.808137 z"
         id="path21" /><path
         style="fill:#333333;fill-opacity:1;stroke:#000000;stroke-width:0.5;stroke-linecap:round;stroke-linejoin:round;stroke-dasharray:none;stroke-opacity:1"
         d="m 134.35648,157.34665 7.99776,-24.85883 c 2.55068,-11.46402 1.77386,-18.35239 -0.79679,-22.68313 -2.01811,-3.77146 -4.2914,-4.31362 -6.83207,-5.82063 l 3.71371,24.68934 -6.60216,19.73771 z"
         id="path20"
         sodipodi:nodetypes="ccccccc" /><path
         style="fill:#333333;fill-opacity:1;stroke:#000000;stroke-width:0.5;stroke-linecap:round;stroke-linejoin:round;stroke-dasharray:none;stroke-opacity:1"
         d="m 129.59767,141.36601 c 0.14589,-0.53492 6.03006,-15.70733 6.03006,-15.70733 0.15735,-9.29273 -3.62168,-10.54868 -6.37047,-13.90805 -5.16901,-2.47746 -4.76445,-0.5345 -6.56498,-0.3404 l -1.50752,-5.05747 11.5252,1.02122 6.22458,8.26702 -3.74448,25.8709 -4.08488,1.94518 z"
         id="path19"
         sodipodi:nodetypes="cccccccccc" /><path
         style="fill:#333333;fill-opacity:1;stroke:#000000;stroke-width:0.5;stroke-linecap:round;stroke-linejoin:round;stroke-dasharray:none;stroke-opacity:1"
         d="m 129.93808,144.38104 5.49513,-15.02652 c 1.12226,-3.25818 1.52863,-6.51635 1.75066,-9.77453 0.12792,-3.39648 -1.2188,-5.53143 -2.77188,-7.63483 -2.56586,-1.85577 -4.59312,-4.28225 -8.65605,-4.7657 -1.2202,-0.21102 -2.59123,-0.15811 -4.32803,0.53492 l -0.0973,-2.33421 4.03625,-0.38904 c 3.94376,-0.49837 7.1285,0.68764 9.92043,2.23696 l 4.03624,13.12997 -2.28558,15.95048 -4.96021,12.15738 z"
         id="path18"
         sodipodi:nodetypes="ccccccccccccc" /><path
         style="fill:#333333;fill-opacity:1;stroke:#000000;stroke-width:0.5;stroke-linecap:round;stroke-linejoin:round;stroke-dasharray:none;stroke-opacity:1"
         d="m 123.32446,181.19359 5.34925,17.40937 -6.4191,0.77807 -3.59858,-14.29708 0.68081,-4.08488 z"
         id="path16" /><path
         style="fill:#333333;fill-opacity:1;stroke:#000000;stroke-width:0.5;stroke-linecap:round;stroke-linejoin:round;stroke-dasharray:none;stroke-opacity:1"
         d="m 130.66752,167.8691 c -3.8721,8.24683 -3.39419,15.99174 -4.13351,23.8771 l -3.40407,-20.27851 3.40407,-7.82936 z"
         id="path15"
         sodipodi:nodetypes="ccccc" /><path
         style="fill:#333333;fill-opacity:1;stroke:#000000;stroke-width:0.5;stroke-linecap:round;stroke-linejoin:round;stroke-dasharray:none;stroke-opacity:1"
         d="m 127.5066,163.73559 c -2.60283,6.99239 -2.64237,13.6186 -2.57737,20.22988 1.25455,5.46134 3.00867,9.54888 5.30062,12.15738 l -1.70203,1.60478 c -4.19122,-2.02512 -4.97119,-7.94881 -6.61362,-12.88683 -0.55111,-4.38477 -1.43625,-8.51904 0,-14.39433 l 2.04244,-10.79576 z"
         id="path14"
         sodipodi:nodetypes="cccccccc" /><path
         style="fill:#333333;fill-opacity:1;stroke:#000000;stroke-width:0.5;stroke-linecap:round;stroke-linejoin:round;stroke-dasharray:none;stroke-opacity:1"
         d="m 134.89829,163.68696 7.39168,12.44916 -0.48629,15.17241 c 0,0 -2.33422,6.90539 -2.72325,7.00265 -0.38904,0.0973 -5.54377,0.77807 -5.54377,0.77807 l 2.82051,-12.64367 -2.04244,-17.11759 z"
         id="path17" /><path
         style="fill:#333333;fill-opacity:1;stroke:#000000;stroke-width:0.5;stroke-linecap:round;stroke-linejoin:round;stroke-dasharray:none;stroke-opacity:1"
         d="m 131.59148,194.95574 2.23696,-3.35543 1.60477,1.45888 -3.54995,8.60743 -5.49514,3.06366 -4.86295,-2.09107 c -2.99435,-1.44691 -3.4753,-3.97099 -4.81432,-6.12732 -2.12088,-5.86796 -1.04852,-11.73593 -0.58356,-17.60389 0.78185,-4.7819 2.35987,-9.56381 4.03625,-14.34571 l 1.16711,7.09991 c -3.37445,9.65483 -1.16245,17.14716 -0.87533,25.38461 l 3.54995,2.82051 7.00266,-2.04243 z"
         id="path13"
         sodipodi:nodetypes="cccccccccccccc" /><path
         style="fill:#333333;fill-opacity:1;stroke:#000000;stroke-width:0.5;stroke-linecap:round;stroke-linejoin:round;stroke-dasharray:none;stroke-opacity:1"
         d="m 115.93277,146.08308 6.4191,10.69849 c 3.17639,6.0238 7.12597,11.81564 9.14235,18.18744 1.51069,6.67179 1.3971,13.29846 -1.75066,19.84085 -1.24388,2.30798 -3.30488,2.81827 -5.15473,3.7931 -4.11495,-2.39398 -3.42935,-7.6683 -3.89036,-12.25464 0.95252,-8.96121 2.16068,-17.75199 3.50132,-26.45446 l -2.82051,-4.76569 -3.59858,27.32979 c -0.68056,5.47071 0.0718,10.31449 1.45888,14.88063 1.06673,1.64605 2.18606,3.19741 3.89036,3.69584 2.69083,0.0275 5.38167,1.0523 8.0725,-2.72325 3.81104,-4.604 3.5339,-10.28383 5.15473,-15.46419 0.62728,-7.86186 -1.60084,-15.18834 -7.19717,-21.88328 l -12.54641,-15.56145 z"
         id="path12"
         sodipodi:nodetypes="cccccccccccccccc" /><path
         style="fill:#333333;fill-opacity:1;stroke:#000000;stroke-width:0.5;stroke-linecap:round;stroke-linejoin:round;stroke-dasharray:none;stroke-opacity:1;paint-order:normal"
         d="m 130.71615,147.73648 2.1397,3.98762 c 2.95621,-7.82698 5.45829,-15.97834 7.13328,-24.72048 1.07859,-15.64139 -3.20202,-21.01286 -6.54973,-25.27067 -7.99375,-5.204451 -15.72814,-2.662691 -19.35455,0.19452 -12.25417,9.9722 -8.33213,18.13963 -8.26701,24.2175 2.80238,7.61403 6.20629,14.29721 10.10313,19.90473 6.26634,7.77761 13.62759,15.19025 17.89567,23.63395 1.14858,4.68206 2.8246,9.15314 2.24876,14.52497 -1.44472,5.81472 -2.13192,12.24922 -5.44651,16.53404 -1.19087,1.96249 -2.85239,2.9837 -4.96021,3.11228 l -4.08488,-1.36162 2.72325,3.89036 c 2.48283,0.0327 4.98814,0.33513 7.29443,-1.75066 l 3.69584,-5.83554 c 1.15841,-2.96324 2.31878,-5.06389 2.8254,-9.00481 1.20487,-5.00606 0.11877,-10.01212 -0.39392,-15.01818 -1.22445,-7.96716 -5.75843,-12.34898 -8.94783,-18.18744 l -14.97789,-20.91069 -4.96021,-12.54642 c -0.66331,-2.89989 -3.94609,-9.70361 7.29442,-19.84084 4.20597,-0.89346 8.78722,-2.49221 14.39434,-0.19452 7.60633,5.63152 5.60183,12.70467 6.4191,19.35455 -0.20695,8.1306 -1.35517,16.03973 -4.66844,23.43943 z"
         id="path8"
         sodipodi:nodetypes="ccccccccccccccccccccccccc" /><path
         style="fill:#333333;fill-opacity:1;stroke:#000000;stroke-width:0.5;stroke-linecap:round;stroke-linejoin:round;stroke-dasharray:none;stroke-opacity:1"
         d="m 132.85585,202.7851 5.64102,-2.626 c 4.12404,-5.03487 3.62248,-11.53045 2.91777,-18.09018 -7.3756,-20.88792 -15.47888,-41.33924 -21.68876,-62.9266 l 2.72325,-0.87533 c 6.46645,19.31441 11.83741,38.47117 21.10521,56.70202 1.19277,4.60861 6.24613,6.82776 -0.87533,25.77365 -4.90673,6.89327 -8.0464,5.15346 -11.96287,4.6198 z"
         id="path9"
         sodipodi:nodetypes="ccccccccc" /><path
         style="fill:#333333;fill-opacity:1;stroke:#000000;stroke-width:0.5;stroke-linecap:round;stroke-linejoin:round;stroke-dasharray:none;stroke-opacity:1"
         d="m 109.90271,126.04772 3.59859,9.33686 14.19982,19.64633 9.53138,13.71352 c 2.2097,7.05651 4.62193,14.01709 2.04244,23.34217 -0.78248,3.03864 -2.16836,4.87048 -3.98762,5.83554 l -1.84792,4.66844 c 2.0601,-1.08452 3.66228,-0.94792 6.4191,-3.89036 1.66425,-2.12157 2.80752,-5.63245 3.69584,-9.82317 l -0.68081,-14.29708 c -1.28949,-3.17988 -2.25039,-5.89974 -4.76569,-10.79575 l -19.2573,-29.85853 -6.22457,-8.75331 z"
         id="path7"
         sodipodi:nodetypes="cccccccccccccc" /><path
         style="fill:#cccccc;fill-opacity:1;stroke:#000000;stroke-width:0.5;stroke-linecap:round;stroke-linejoin:round;stroke-dasharray:none;stroke-opacity:1"
         d="m 114.06054,103.38636 -1.75066,-5.008842 5.20336,-1.556144 1.50751,4.911586"
         id="path11" /><path
         style="fill:#333333;fill-opacity:1;stroke:#000000;stroke-width:0.5;stroke-linecap:butt;stroke-linejoin:miter;stroke-dasharray:none;stroke-opacity:1"
         d="m 117.58618,133.24488 11.96286,19.54907 9.23961,11.8656 -6.61362,-12.54641 -11.76834,-20.4244 z"
         id="path6" /><path
         style="fill:#808080;stroke:#000000;stroke-width:0.264583px;stroke-linecap:butt;stroke-linejoin:miter;stroke-opacity:1"
         d="m 121.21158,156.14802 c -1.18196,-0.0229 -2.49503,-1.33533 -2.16634,-2.09756 7.21148,-4.05895 14.08744,-1.98997 17.08998,0.65334 0.70827,0.67168 0.40012,1.40315 -0.44702,2.16633 0.0992,-0.72998 -0.12537,-1.53846 -0.99721,-1.65054 -4.93726,-2.57536 -8.77484,-2.42585 -13.52906,-0.42515 0.40645,0.63467 0.16652,0.96517 0.0496,1.35358 z"
         id="path22"
         sodipodi:nodetypes="ccccccc" /><path
         style="fill:#4d4d4d;fill-opacity:1;stroke:#000000;stroke-width:0.5;stroke-linecap:round;stroke-linejoin:round;stroke-dasharray:none;stroke-opacity:1"
         d="m 118.99643,119.09369 4.7657,-1.02122 -1.26437,-3.74447 2.23696,-0.38904 -4.23077,-12.93545 -8.41291,3.11229 3.50133,11.76835 2.18833,-0.4863 z"
         id="path10" /><path
         style="fill:#4d4d4d;stroke:#000000;stroke-width:0.5;stroke-linecap:round;stroke-linejoin:round;stroke-dasharray:none;stroke-opacity:1"
         d="m 111.96167,130.11762 -5.5018,-13.20433 3.30108,-1.2379 7.70252,-0.13755 5.08917,11.96642 -1.92563,1.92563 0.96281,1.65054 -4.67653,2.20073 -2.06317,-3.57618 z"
         id="path1" /><path
         style="fill:#cccccc;stroke:#000000;stroke-width:0.5;stroke-linecap:round;stroke-linejoin:round;stroke-dasharray:none;stroke-opacity:1"
         d="m 107.01005,116.36311 -2.61336,-7.42743 2.06318,-1.78809 7.28989,0.2751 3.22051,8.09156 -7.48441,0.29868 z"
         id="path2"
         sodipodi:nodetypes="ccccccc" /><path
         style="fill:none;stroke:#000000;stroke-width:0.5;stroke-linecap:round;stroke-linejoin:round;stroke-dasharray:none;stroke-opacity:1"
         d="m 109.50255,115.98385 -3.04268,-8.69871"
         id="path3"
         sodipodi:nodetypes="cc" /><path
         style="fill:#1a1a1a;stroke:#000000;stroke-width:0.5;stroke-linecap:round;stroke-linejoin:round;stroke-dasharray:none;stroke-opacity:1"
         d="m 110.41333,110.68079 0.38903,1.36162 -1.60477,0.0486 -0.29178,-1.38594 z"
         id="path4" /><path
         style="fill:#1a1a1a;stroke:#000000;stroke-width:0.5;stroke-linecap:round;stroke-linejoin:round;stroke-dasharray:none;stroke-opacity:1"
         d="m 112.60165,110.7051 0.51061,1.43457 1.50752,0.0243 -0.70513,-1.62909 z"
         id="path5" /></g></g></svg>
